<?xml version="1.0" encoding="utf-8"?>
<!-- Generator: Adobe Illustrator 18.1.1, SVG Export Plug-In . SVG Version: 6.00 Build 0)  -->
<svg version="1.1" id="Layer_1" xmlns="http://www.w3.org/2000/svg" xmlns:xlink="http://www.w3.org/1999/xlink" x="0px" y="0px"
	 viewBox="-241 348 128 98" enable-background="new -241 348 128 98" xml:space="preserve">
<g>
	
		<linearGradient id="SVGID_1_" gradientUnits="userSpaceOnUse" x1="113.7031" y1="118.2188" x2="113.7031" y2="-66.7812" gradientTransform="matrix(0.512 0 0 -0.512 -235.216 410.168)">
		<stop  offset="0" style="stop-color:#F1F1F1"/>
		<stop  offset="0.6043" style="stop-color:#CFCDCD"/>
		<stop  offset="1" style="stop-color:#424242"/>
	</linearGradient>
	<rect x="-241" y="349.6" fill="url(#SVGID_1_)" width="128" height="94.7"/>
</g>
<rect x="-238.4" y="352.2" width="122.9" height="89.6"/>
<g>
	<rect x="-238.4" y="371.2" fill="#1A1F13" width="122.9" height="3.1"/>
	<rect x="-238.4" y="365.1" fill="#1A1F13" width="122.9" height="3.1"/>
	<rect x="-238.4" y="358.9" fill="#1A1F13" width="122.9" height="3.1"/>
	<rect x="-238.4" y="352.8" fill="#1A1F13" width="122.9" height="3.1"/>
	<rect x="-238.4" y="395.8" fill="#1A1F13" width="122.9" height="3.1"/>
	<rect x="-238.4" y="389.6" fill="#1A1F13" width="122.9" height="3.1"/>
	<rect x="-238.4" y="383.5" fill="#1A1F13" width="122.9" height="3.1"/>
	<rect x="-238.4" y="377.3" fill="#1A1F13" width="122.9" height="3.1"/>
	<rect x="-238.4" y="420.3" fill="#1A1F13" width="122.9" height="3.1"/>
	<rect x="-238.4" y="414.2" fill="#1A1F13" width="122.9" height="3.1"/>
	<rect x="-238.4" y="408.1" fill="#1A1F13" width="122.9" height="3.1"/>
	<rect x="-238.4" y="401.9" fill="#1A1F13" width="122.9" height="3.1"/>
	<rect x="-238.4" y="438.8" fill="#1A1F13" width="122.9" height="3.1"/>
	<rect x="-238.4" y="432.6" fill="#1A1F13" width="122.9" height="3.1"/>
	<rect x="-238.4" y="426.5" fill="#1A1F13" width="122.9" height="3.1"/>
</g>
<g>
	
		<image overflow="visible" enable-background="new    " width="492" height="296" xlink:href="597A6072F5CDF290.png"  transform="matrix(0.1219 0 0 0.1204 -193.3494 377.5304)">
	</image>
	<g>
		<rect x="-178" y="392.9" fill="#EE8122" width="29.2" height="4.9"/>
	</g>
</g>
<g>
	
		<image overflow="visible" enable-background="new    " width="525" height="567" xlink:href="597A6072F5CDF291.png"  transform="matrix(0.1217 0 0 0.1216 -241.2766 343.4299)">
	</image>
	<g>
		<polygon fill="#EE8122" points="-225.9,377.9 -225.9,358.8 -209.4,368.3 -192.9,377.9 -209.4,387.4 -225.9,396.9 		"/>
	</g>
</g>
<linearGradient id="SVGID_2_" gradientUnits="userSpaceOnUse" x1="-6.2969" y1="47.8188" x2="233.7031" y2="47.8188" gradientTransform="matrix(0.512 0 0 -0.512 -235.216 410.168)">
	<stop  offset="0" style="stop-color:#FFFFFF;stop-opacity:0.3"/>
	<stop  offset="1" style="stop-color:#FFFFFF;stop-opacity:0.13"/>
</linearGradient>
<path fill="url(#SVGID_2_)" d="M-238.4,352.2v67c25.8-15.7,68.9-36,122.9-49v-17.9H-238.4z"/>
</svg>
