<?xml version="1.0" encoding="utf-8"?>
<!-- Generator: Adobe Illustrator 18.1.1, SVG Export Plug-In . SVG Version: 6.00 Build 0)  -->
<svg version="1.1" id="Layer_1" xmlns="http://www.w3.org/2000/svg" xmlns:xlink="http://www.w3.org/1999/xlink" x="0px" y="0px"
	 viewBox="-241 517.4 612 452.8" enable-background="new -241 517.4 612 452.8" xml:space="preserve">
<linearGradient id="SVGID_1_" gradientUnits="userSpaceOnUse" x1="113.7031" y1="673.7031" x2="113.7031" y2="858.6641" gradientTransform="matrix(2.448 0 0 2.448 -213.3453 -1131.8566)">
	<stop  offset="0" style="stop-color:#F1F1F1"/>
	<stop  offset="0.6043" style="stop-color:#CFCDCD"/>
	<stop  offset="1" style="stop-color:#424242"/>
</linearGradient>
<rect x="-241" y="517.4" fill="url(#SVGID_1_)" width="612" height="452.8"/>
<rect x="-228.6" y="529.8" width="587.6" height="428.4"/>
<rect x="60.2" y="724.4" fill="#F2693E" width="139.6" height="23.4"/>
<g>
	<g>
		<linearGradient id="SVGID_2_" gradientUnits="userSpaceOnUse" x1="-197.2616" y1="589.8146" x2="-72.0728" y2="715.0034">
			<stop  offset="0" style="stop-color:#F7931E"/>
			<stop  offset="1" style="stop-color:#F2693E"/>
		</linearGradient>
		<path fill="url(#SVGID_2_)" d="M-86.5,641.6c19.7,0,36.2,13.2,41.4,31.2l35.6-20.3l-159.3-91.1v182.1l51.1-29.2
			c-7.3-7.7-11.8-18.1-11.8-29.6C-129.4,660.8-110.3,641.6-86.5,641.6z"/>
		<path fill="#F2693E" d="M-49.1,706.1c3.6-6.2,5.7-13.7,5.7-21.4c0-4.1-0.6-8.1-1.7-11.9l-11.4,6.5c0.3,1.7,0.5,3.5,0.5,5.4
			c0,16.8-13.5,30.3-30.4,30.3c-7.6,0-14.5-2.7-19.8-7.3l-11.4,6.5c7.8,8.3,19,13.5,31.3,13.5c8.2,0,15.9-2.3,22.4-6.2l14.9,14.9
			c4.2,4.2,10.9,4.2,15.1,0c4.1-4.3,4.1-11.1,0-15.2L-49.1,706.1z"/>
	</g>
	<path d="M-116.9,684.7c0-16.8,13.7-30.4,30.4-30.4c15,0,27.4,10.8,30,25.1l11.4-6.5c-5.2-18-21.7-31.2-41.4-31.2
		c-23.8,0-43,19.3-43,43.1c0,11.5,4.5,21.9,11.8,29.6l11.4-6.5C-112.8,702.2-116.9,693.9-116.9,684.7z"/>
</g>
<linearGradient id="SVGID_3_" gradientUnits="userSpaceOnUse" x1="-6.2187" y1="744.2109" x2="233.8203" y2="744.2109" gradientTransform="matrix(2.448 0 0 2.448 -213.3453 -1131.8566)">
	<stop  offset="0" style="stop-color:#FFFFFF;stop-opacity:0.3"/>
	<stop  offset="1" style="stop-color:#FFFFFF;stop-opacity:0.13"/>
</linearGradient>
<path fill="url(#SVGID_3_)" d="M-228.6,529.8v320.3C-105.2,775.1,100.9,678,359,615.9v-85.6h-587.6V529.8z"/>
</svg>
