<?xml version="1.0" encoding="utf-8"?>
<!-- Generator: Adobe Illustrator 18.1.1, SVG Export Plug-In . SVG Version: 6.00 Build 0)  -->
<svg version="1.1" id="Layer_1" xmlns="http://www.w3.org/2000/svg" xmlns:xlink="http://www.w3.org/1999/xlink" x="0px" y="0px"
	 viewBox="-241 348 378 98" enable-background="new -241 348 378 98" xml:space="preserve">
<g>

		<linearGradient id="SVGID_1_" gradientUnits="userSpaceOnUse" x1="113.7031" y1="118.2188" x2="113.7031" y2="-66.7812" gradientTransform="matrix(0.512 0 0 -0.512 -235.216 410.168)">
		<stop  offset="0" style="stop-color:#F1F1F1"/>
		<stop  offset="0.6043" style="stop-color:#CFCDCD"/>
		<stop  offset="1" style="stop-color:#424242"/>
	</linearGradient>
	<rect x="-241" y="349.6" fill="url(#SVGID_1_)" width="128" height="94.7"/>
</g>
<rect x="-238.4" y="352.2" width="122.9" height="89.6"/>
<g>
	<rect x="-238.4" y="371.2" fill="#1A1F13" width="122.9" height="3.1"/>
	<rect x="-238.4" y="365.1" fill="#1A1F13" width="122.9" height="3.1"/>
	<rect x="-238.4" y="358.9" fill="#1A1F13" width="122.9" height="3.1"/>
	<rect x="-238.4" y="352.8" fill="#1A1F13" width="122.9" height="3.1"/>
	<rect x="-238.4" y="395.8" fill="#1A1F13" width="122.9" height="3.1"/>
	<rect x="-238.4" y="389.6" fill="#1A1F13" width="122.9" height="3.1"/>
	<rect x="-238.4" y="383.5" fill="#1A1F13" width="122.9" height="3.1"/>
	<rect x="-238.4" y="377.3" fill="#1A1F13" width="122.9" height="3.1"/>
	<rect x="-238.4" y="420.3" fill="#1A1F13" width="122.9" height="3.1"/>
	<rect x="-238.4" y="414.2" fill="#1A1F13" width="122.9" height="3.1"/>
	<rect x="-238.4" y="408.1" fill="#1A1F13" width="122.9" height="3.1"/>
	<rect x="-238.4" y="401.9" fill="#1A1F13" width="122.9" height="3.1"/>
	<rect x="-238.4" y="438.8" fill="#1A1F13" width="122.9" height="3.1"/>
	<rect x="-238.4" y="432.6" fill="#1A1F13" width="122.9" height="3.1"/>
	<rect x="-238.4" y="426.5" fill="#1A1F13" width="122.9" height="3.1"/>
</g>
<g>

		<image overflow="visible" enable-background="new    " width="492" height="296" xlink:href="6E7172C9FC963598.png"  transform="matrix(0.1219 0 0 0.1204 -193.3494 377.5304)">
	</image>
	<g>
		<rect x="-178" y="392.9" fill="#EE8122" width="29.2" height="4.9"/>
	</g>
</g>
<g>

		<image overflow="visible" enable-background="new    " width="525" height="567" xlink:href="6E7172C9FC963599.png"  transform="matrix(0.1217 0 0 0.1216 -241.2766 343.4299)">
	</image>
	<g>
		<polygon fill="#EE8122" points="-225.9,377.9 -225.9,358.8 -209.4,368.3 -192.9,377.9 -209.4,387.4 -225.9,396.9 		"/>
	</g>
</g>
<linearGradient id="SVGID_2_" gradientUnits="userSpaceOnUse" x1="-6.2969" y1="47.8188" x2="233.7031" y2="47.8188" gradientTransform="matrix(0.512 0 0 -0.512 -235.216 410.168)">
	<stop  offset="0" style="stop-color:#FFFFFF;stop-opacity:0.3"/>
	<stop  offset="1" style="stop-color:#FFFFFF;stop-opacity:0.13"/>
</linearGradient>
<path fill="url(#SVGID_2_)" d="M-238.4,352.2v67c25.8-15.7,68.9-36,122.9-49v-17.9H-238.4z"/>
<g>
	<path d="M-106.4,430.7c0-2.3,0.4-3.4,2.2-4.8l2.7-2.3c1.7-1.4,2.6-1.5,4.7-1.5h5.8c1.2,0,2.5,0.3,2.5,1.8c0,1.6-1.5,1.8-2.5,1.8
		h-6.5c-0.7,0-1.5,0.4-2.1,0.9l-2.2,1.9c-0.6,0.5-1,0.8-1,1.6v4.5c0,0.7,0.4,1.1,1,1.6l2.2,1.9c0.6,0.5,1.4,0.9,2.1,0.9h6.5
		c1.1,0,2.5,0.2,2.5,1.8c0,1.6-1.3,1.8-2.5,1.8h-5.8c-2.1,0-3,0-4.7-1.5l-2.7-2.3c-1.8-1.5-2.2-2.6-2.2-4.8V430.7z"/>
	<path d="M-78.9,429c0-2.4,0.5-3.3,2.3-4.8c1.8-1.5,2.6-2.1,5.2-2.1h2.9c2.6,0,3.4,0.6,5.2,2.1c1.8,1.5,2.3,2.3,2.3,4.8v6.9
		c0,2.4-0.6,3.3-2.5,4.9c-1.9,1.6-2.7,1.9-5,1.9h-2.9c-2.3,0-3.1-0.3-5-1.9c-1.9-1.6-2.5-2.5-2.5-4.9V429z M-75.2,435.9
		c0,0.8,0.3,1.3,1.3,2.2c0.8,0.7,1.4,1,2.5,1h2.9c1.1,0,1.7-0.3,2.5-1c1.1-0.9,1.3-1.4,1.3-2.2V429c0-0.8-0.3-1.3-1.3-2.2
		c-0.8-0.7-1.4-1-2.5-1h-2.9c-1.1,0-1.7,0.3-2.5,1c-1.1,0.9-1.3,1.4-1.3,2.2V435.9z"/>
	<path d="M-37.1,426.8v-1.9c0-1.3,0.2-2.7,1.9-2.7c1.3,0,1.8,1,1.8,2.2v2.6c0,0.6-0.2,0.9-0.4,1.5l-5.5,12c-0.3,0.8-1,2.3-1.9,2.3
		h-2.4c-0.9,0-1.6-1.5-1.9-2.3l-5.5-12c-0.3-0.6-0.4-0.9-0.4-1.5v-2.6c0-1.2,0.5-2.2,1.8-2.2c1.6,0,1.9,1.4,1.9,2.7v1.9l5.3,12.2
		L-37.1,426.8z"/>
	<path d="M-17.2,442.8c-1.5,0-2.1,0-3.3-1l-1.6-1.4c-1.5-1.3-1.9-2.1-1.9-4.1v-7.1c0-1.9,0.3-3.1,1.8-4.4l1.3-1.1
		c1.7-1.5,2.6-1.5,4-1.5h3.4c1.8,0,2.6,0.2,4,1.3l1.5,1.2c1.7,1.3,1.9,2.8,1.9,4.8v2.9c0,2.1-0.3,2.7-2.5,2.7h-11.8v1.2
		c0,0.3,0.3,0.8,0.5,1.1l0.9,1c0.5,0.5,1.2,0.7,2.4,0.7h7.9c1.2,0,2.5,0.3,2.5,1.8c0,1.6-1.5,1.8-2.5,1.8H-17.2z M-20.2,431.5h10.6
		v-2.2c0-0.7,0-1.3-0.5-1.7l-1.4-1.2c-0.5-0.4-1.2-0.5-1.8-0.5h-3.1c-0.7,0-1.3,0-1.9,0.4l-1.3,0.9c-0.5,0.3-0.8,0.6-0.8,1.7V431.5z
		"/>
	<path d="M3.6,429c0-2.4,0.5-3.3,2.3-4.8c1.8-1.5,2.6-2.1,5.2-2.1H14c2.6,0,3.4,0.6,5.2,2.1c1.8,1.5,2.3,2.3,2.3,4.8v6.9
		c0,2.4-0.6,3.3-2.5,4.9c-1.9,1.6-2.7,1.9-5,1.9h-2.9c-2.3,0-3.1-0.3-5-1.9c-1.9-1.6-2.5-2.5-2.5-4.9V429z M7.3,435.9
		c0,0.8,0.3,1.3,1.3,2.2c0.8,0.7,1.4,1,2.5,1H14c1.1,0,1.7-0.3,2.5-1c1.1-0.9,1.3-1.4,1.3-2.2V429c0-0.8-0.3-1.3-1.3-2.2
		c-0.8-0.7-1.4-1-2.5-1h-2.9c-1.1,0-1.7,0.3-2.5,1c-1.1,0.9-1.3,1.4-1.3,2.2V435.9z"/>
	<path d="M44.5,425.6c1.6,0,2.3,0.6,2.3,2.3c0,1.7-0.7,2.3-2.3,2.3h-8.9c-1.6,0-2.3-0.6-2.3-2.3c0-1.7,0.7-2.3,2.3-2.3H44.5z"/>
	<path d="M58.6,430.7c0-2.3,0.4-3.4,2.2-4.8l2.7-2.3c1.7-1.4,2.6-1.5,4.7-1.5H74c1.2,0,2.5,0.3,2.5,1.8c0,1.6-1.5,1.8-2.5,1.8h-6.5
		c-0.7,0-1.5,0.4-2.1,0.9l-2.2,1.9c-0.6,0.5-1,0.8-1,1.6v4.5c0,0.7,0.4,1.1,1,1.6l2.2,1.9c0.6,0.5,1.4,0.9,2.1,0.9H74
		c1.1,0,2.5,0.2,2.5,1.8c0,1.6-1.3,1.8-2.5,1.8h-5.8c-2.1,0-3,0-4.7-1.5l-2.7-2.3c-1.8-1.5-2.2-2.6-2.2-4.8V430.7z"/>
	<path d="M97,439.1h2.8c1.2,0,2.5,0.3,2.5,1.8c0,1.6-1.5,1.8-2.5,1.8h-9.3c-1.1,0-2.5-0.2-2.5-1.8c0-1.6,1.3-1.8,2.5-1.8h2.9v-20.8
		h-2.9c-1.1,0-2.5-0.2-2.5-1.8c0-1.6,1.3-1.8,2.5-1.8h3.9c2.1,0,2.7,0.4,2.7,2.6V439.1z"/>
	<path d="M124.5,439.1h2.8c1.2,0,2.5,0.3,2.5,1.8c0,1.6-1.5,1.8-2.5,1.8h-9.3c-1.1,0-2.5-0.2-2.5-1.8c0-1.6,1.3-1.8,2.5-1.8h2.9
		v-13.3h-2.9c-1.1,0-2.5-0.2-2.5-1.8c0-1.6,1.3-1.8,2.5-1.8h3.9c2.1,0,2.7,0.4,2.7,2.6V439.1z M119,414.8c0-1.3,0.7-1.7,1.7-1.7h2.1
		c1,0,1.7,0.4,1.7,1.7v1.8c0,1.3-0.7,1.7-1.7,1.7h-2.1c-1,0-1.7-0.4-1.7-1.7V414.8z"/>
</g>
</svg>
